<svg id="f1659d5b-0354-4749-a208-f266c91d2e0d" data-name="Layer 1" fill= "#d22163" xmlns="http://www.w3.org/2000/svg" viewBox="0 0 218.76 85.46">
  <g>
    <path d="M296.38,237.62c-.41.54-.79,1-1.19,1.55-.22.28,0,.4.17.55a9.16,9.16,0,0,1,1.88,3.22.72.72,0,0,1-.19.85c-1.09,1.05-.74,1.11-2.2.45a18.44,18.44,0,0,1-2.47-1.58,4.19,4.19,0,0,1-.34-.28c-.52.4-1,.77-1.51,1.18-.08.07-.07.35,0,.48a10,10,0,0,1,1,3.75.63.63,0,0,1-.33.66c-1.37.85-1.15.88-2.38-.17a14.7,14.7,0,0,1-1.88-2.13c-.21-.27-.35-.34-.66-.17a5.44,5.44,0,0,1-1.08.47c-.46.14-.53.38-.43.81a7.47,7.47,0,0,1,0,3.67.8.8,0,0,1-.47.5c-1.67.48-1.31.68-2.36-.8a13.09,13.09,0,0,1-1.19-2.47c-.13-.3-.24-.43-.58-.35A4,4,0,0,1,279,248c-.56,0-.6.3-.62.71a8.94,8.94,0,0,1-.73,3.13,1.12,1.12,0,0,1-1.24.81c-1.12-.06-1.19,0-1.52-1.05a23.63,23.63,0,0,1-.67-3c-.06-.33-.14-.47-.48-.49a9,9,0,0,1-1.37-.16c-.37-.08-.5.09-.6.4a9.31,9.31,0,0,1-1.75,3.19.81.81,0,0,1-1,.28c-1.42-.42-1.3-.08-1.42-1.82a25.67,25.67,0,0,1,.15-2.89.55.55,0,0,0-.24-.4c-.42-.22-.88-.37-1.31-.57s-.44-.08-.61.19A8.62,8.62,0,0,1,263,249a.71.71,0,0,1-.79.06c-1.17-.58-1.35-.85-1-2.1.23-1,.61-1.86.91-2.79,0-.14.06-.38,0-.45-.51-.42-1.05-.81-1.47-1.13-1,.62-1.91,1.26-2.89,1.76-1.24.63-1.53.52-2.36-.62a.68.68,0,0,1-.08-.54,7.69,7.69,0,0,1,1.93-3.35c.25-.26.22-.42,0-.67a9.87,9.87,0,0,1-.84-1.09.39.39,0,0,0-.59-.15,10.32,10.32,0,0,1-3.21,1c-.93.13-1,.07-1.49-.7a1.14,1.14,0,0,1,.09-1.59,9.79,9.79,0,0,1,2.48-2.28c.31-.19.32-.34.16-.63a8.87,8.87,0,0,1-.54-1.22c-.11-.27-.22-.35-.53-.28a8.62,8.62,0,0,1-3.68.06.81.81,0,0,1-.75-.65c-.39-1.53-.53-1.22.68-2.09a13.79,13.79,0,0,1,2.64-1.38c.34-.16.42-.3.36-.63a12.54,12.54,0,0,1-.19-1.37c0-.33-.15-.44-.5-.45a8.41,8.41,0,0,1-3.62-.86.76.76,0,0,1-.49-.67c-.13-1.32-.09-1.54,1.15-2a19.56,19.56,0,0,1,3.06-.64c.27-.05.39-.12.42-.39.05-.47.11-.94.19-1.41,0-.31,0-.46-.36-.54a7.78,7.78,0,0,1-3.3-1.82.71.71,0,0,1-.27-.79c.42-1.59.18-1.45,1.8-1.59a14,14,0,0,1,2.88.17c.31,0,.44,0,.54-.29a13.19,13.19,0,0,1,.5-1.23.4.4,0,0,0-.19-.62,9.44,9.44,0,0,1-2.62-2.46.93.93,0,0,1-.1-1.16c.73-1.29.51-1.08,1.73-1a7.08,7.08,0,0,1,3,.93c.32.18.5.15.7-.15a6.84,6.84,0,0,1,.73-1c.32-.33.33-.58,0-.94a7.55,7.55,0,0,1-1.85-3.28.78.78,0,0,1,.12-.58c1.16-1.26.94-1.21,2.29-.59a15.91,15.91,0,0,1,2.53,1.65c.24.17.37.23.6,0,.4-.34,1-.58,1.17-1s-.3-.9-.41-1.37c-.23-1-.41-2-.61-3a.34.34,0,0,1,0-.14,2.1,2.1,0,0,1,1.95-.73,9.1,9.1,0,0,1,2.61,2.67c.21.32.39.43.76.22a5.07,5.07,0,0,1,1.18-.49c.45-.12.48-.36.4-.74a8.85,8.85,0,0,1,0-3.73.75.75,0,0,1,.38-.46c1.33-.55,1.67-.47,2.42.77a22.37,22.37,0,0,1,1.22,2.51c.11.25.19.36.48.31a10.19,10.19,0,0,1,1.46-.16c.36,0,.47-.15.47-.49a8.8,8.8,0,0,1,.92-3.76c.13-.26.28-.4.58-.36a1.84,1.84,0,0,0,.62,0c.67-.14,1,.21,1.19.77a9.35,9.35,0,0,1,.74,3c0,.75,0,.74.75.82a9.53,9.53,0,0,1,1.09.15c.4.11.52-.08.62-.42a8.08,8.08,0,0,1,1.77-3.17.74.74,0,0,1,.86-.29c1.57.41,1.38.22,1.51,1.81a15,15,0,0,1-.2,2.83c0,.29,0,.44.29.54a12.67,12.67,0,0,1,1.32.55c.3.16.46.11.65-.18a9.51,9.51,0,0,1,2.62-2.67.79.79,0,0,1,.87-.07c1.16.55,1.27.74,1.1,2a7.49,7.49,0,0,1-.95,2.87.37.37,0,0,0,.13.59,10.6,10.6,0,0,1,1.13.87c.24.21.38.23.62,0a8,8,0,0,1,3.23-1.94.72.72,0,0,1,.82.18c1.15,1.13,1.08.79.44,2.23a14.89,14.89,0,0,1-1.52,2.4c-.18.26-.27.41,0,.68a12.14,12.14,0,0,1,.86,1.14c.16.23.3.25.54.12a9.46,9.46,0,0,1,3.64-1,.76.76,0,0,1,.83.45c.72,1.32.84.91-.19,2.19a14.55,14.55,0,0,1-2.23,2c-.23.19-.29.3-.15.57a11.73,11.73,0,0,1,.53,1.27c.1.28.22.35.53.28a8.69,8.69,0,0,1,3.73-.06.76.76,0,0,1,.69.61c.39,1.52.57,1.25-.72,2.16a14.38,14.38,0,0,1-2.63,1.32c-.29.13-.38.23-.32.55a9.7,9.7,0,0,1,.15,1.32c0,.33.13.46.48.47a8.68,8.68,0,0,1,3.53.88,1,1,0,0,1,.64,1c0,1.19,0,1.19-1.1,1.67a7.51,7.51,0,0,1-2.95.66c-.44,0-.67.14-.66.63a4.4,4.4,0,0,1-.16,1.13c-.07.33.05.48.37.57a7.65,7.65,0,0,1,3.35,1.91.69.69,0,0,1,.19.56c-.41,1.72-.12,1.56-1.93,1.69a14.88,14.88,0,0,1-2.74-.21c-.27,0-.41,0-.5.27a10,10,0,0,1-.53,1.27c-.15.3-.08.45.19.61a8.86,8.86,0,0,1,2.62,2.52.93.93,0,0,1,0,1.14c-.64,1-.36,1-1.7.87A9.51,9.51,0,0,1,296.38,237.62Zm-19.45,9.23c.82-.11,2.46-.21,4.05-.55a23.22,23.22,0,0,0,11.13-5.9,21.73,21.73,0,0,0,5.54-8.16c.26-.66.13-.94-.52-1.17l-3-1a.78.78,0,0,0-1.13.46c-.07.14-.13.29-.19.43a17.45,17.45,0,0,1-6.35,7.73A18.22,18.22,0,0,1,262,235.11a17,17,0,0,1-2.61-4.42c-.25-.6-.55-.77-1-.6-1,.34-2.08.68-3.11,1-.7.23-.84.54-.57,1.23C258.07,240.94,266.57,246.81,276.93,246.85Zm-.72-46.48c-1.23.12-2.47.19-3.69.37a20.61,20.61,0,0,0-7.07,2.42c-1.28.7-2.47,1.55-3.67,2.37a.74.74,0,0,0-.19,1.22c.76.87,1.54,1.73,2.32,2.59a.69.69,0,0,0,1,.13c.3-.2.59-.43.89-.64a17.78,17.78,0,0,1,10.07-3.25,18.2,18.2,0,0,1,9.09,2.21,21,21,0,0,1,2.26,1.49c.7.48,1,.47,1.51-.13l2-2.2c.56-.62.54-1-.14-1.48A23.74,23.74,0,0,0,276.21,200.37Zm-23.14,23.95c.15,1,.36,2.71.61,4.37.1.65.43.83,1,.64l3-.92c.72-.22.88-.47.74-1.22a19.21,19.21,0,0,1-.09-7,16.63,16.63,0,0,1,4.1-8.29c.53-.61.54-1,0-1.59s-1.28-1.32-1.91-2-.95-.63-1.54,0C255,212.65,253.28,217.86,253.07,224.32Zm46.4-.39c-.15-1.46-.22-2.65-.39-3.83a21.82,21.82,0,0,0-3.68-9.44,31,31,0,0,0-2.06-2.55c-.42-.49-.76-.46-1.2,0-.73.72-1.47,1.45-2.19,2.19a.92.92,0,0,0,0,1.48,17.08,17.08,0,0,1,2.64,3.83A18,18,0,0,1,294,227.1c-.13.76.06,1.07.81,1.29,1,.29,2,.59,3,.9.61.18.94,0,1-.63C299.06,227,299.27,225.34,299.47,223.93Zm-6.75-.38a19.68,19.68,0,0,0-.85-5.21c-.2-.72-.46-.84-1.07-.42q-3.74,2.57-7.44,5.15a.75.75,0,0,0,0,1.36l7.49,5.06c.53.36.78.28,1-.34A18.34,18.34,0,0,0,292.72,223.55ZM274,238.94c0-.44-.09-.88-.12-1.33q-.26-3.56-.52-7.11c-.08-1.07-.52-1.31-1.47-.85l-5,2.48c-1,.5-2,1-3,1.49-.5.26-.53.51-.15.92s.55.53.82.8a18.11,18.11,0,0,0,8.23,4.55C274,240.19,274.06,240.1,274,238.94Zm4.42-30.86c.09,1.15.16,2.15.23,3.14.14,1.95.28,3.89.43,5.84.06.76.54,1.05,1.25.76l.31-.14,6.19-3c.6-.29,1.2-.58,1.79-.9.4-.21.44-.46.15-.81a8.47,8.47,0,0,0-.67-.67,18.31,18.31,0,0,0-8.68-4.86C278.68,207.25,278.43,207.43,278.45,208.08Zm.12,30.92c0,.82.16.95.93.8l.14,0a17.77,17.77,0,0,0,9.05-5.24c.55-.59.53-.83-.21-1.2l-3.12-1.51-4.84-2.35c-.79-.38-1.26-.08-1.3.78s-.11,1.49-.17,2.23C278.89,234.66,278.73,236.85,278.57,239Zm-18.79-15.62a20,20,0,0,0,.84,5.67c.21.74.44.83,1.08.4l7.42-5a.73.73,0,0,0,0-1.34c-2.53-1.75-5.08-3.48-7.62-5.22-.44-.3-.68-.2-.84.32A18.28,18.28,0,0,0,259.78,223.38Zm14-14.61h0c0-.24.05-.48.06-.71,0-.55-.2-.76-.72-.62a16.43,16.43,0,0,0-4.73,1.81c-1.22.77-2.3,1.74-3.44,2.63q-.6.47-1.17,1c-.53.46-.47.82.15,1.11l.65.3,7.31,3.56c.7.34,1.21.06,1.27-.69C273.37,214.33,273.57,211.55,273.78,208.77Zm8.15,14.93a5.79,5.79,0,0,0-5.76-5.84,5.83,5.83,0,1,0,0,11.65C279.18,229.52,282.1,226.79,281.93,223.7Z" transform="translate(-86.48 -194.64)"/>
    <path d="M124.18,221.7V211.5c0-.61.07-.71.67-.81a39.45,39.45,0,0,1,7.12-.38,18.23,18.23,0,0,0,1.95.06,5.77,5.77,0,0,1,2.48.67,6.19,6.19,0,0,1,3,2.82,3.66,3.66,0,0,1,.33,1,6.92,6.92,0,0,1-1,6.24,5.05,5.05,0,0,1-2.11,1.8c-.3.15-.33.29-.2.59,1.2,2.66,2.38,5.33,3.56,8,0,.09.08.17.11.26a.81.81,0,0,1-.78,1.19c-.81,0-1.62,0-2.43.1a.71.71,0,0,1-.78-.46c-.72-1.52-1.45-3-2.15-4.56-.52-1.12-1-2.26-1.48-3.4a.55.55,0,0,0-.57-.38c-1.11,0-2.22,0-3.33-.11-.44,0-.61.11-.61.58,0,2.32,0,4.64,0,7,0,1.64.22,1.3-1.33,1.37-.38,0-.76,0-1.14,0-.89,0-1.31-.34-1.31-1.24Zm3.92-4.26c0,.87,0,1.74,0,2.61,0,.64,0,.64.62.64,1.06,0,2.12,0,3.18,0a5.09,5.09,0,0,0,2.51-.55,2.73,2.73,0,0,0,1.43-2.28,2.86,2.86,0,0,0-1.25-3.07c-.11-.08-.19-.23-.31-.3a1.31,1.31,0,0,0-.58-.23c-1.71,0-3.42,0-5.14,0-.35,0-.48.11-.47.47C128.11,215.63,128.1,216.53,128.1,217.44Z" transform="translate(-86.48 -194.64)"/>
    <path d="M212.3,226.61v5.62a.86.86,0,0,1-1.18.91c-.63-.2-1.23-.48-1.86-.69a1.23,1.23,0,0,0-.63,0c-1,.22-2.06.53-3.11.7a7.69,7.69,0,0,1-3.81-.17,4,4,0,0,1-2.45-2.42c-.58-1.41-.28-2.85-.35-4.28a5.3,5.3,0,0,1,1.48-2.09,7.14,7.14,0,0,1,3.67-1.11c1.28,0,2.56-.21,3.84-.31.34,0,.5-.15.47-.5a1.19,1.19,0,0,1,0-.42c.19-.84-.39-1.28-.92-1.73a.87.87,0,0,0-.54-.11c-2,0-4,.07-6,.14-.49,0-.7-.15-.72-.63s-.12-1.17-.16-1.75a.83.83,0,0,1,.69-.93,33,33,0,0,1,6.58-.57,16.85,16.85,0,0,1,2.61.48,1.46,1.46,0,0,1,.59.45c1.35,1.33,1.36,1.33,1.69,3.19a9.5,9.5,0,0,1,.1,1.51C212.31,223.44,212.3,225,212.3,226.61Zm-5.94-.63H205a2,2,0,0,0-2.17,1.68l-.09.32a3.66,3.66,0,0,0,.72,1.79.37.37,0,0,0,.18,0,18.47,18.47,0,0,0,4.39-.28.41.41,0,0,0,.36-.47c0-.91,0-1.81,0-2.71,0-.29-.11-.39-.4-.39C207.47,226,206.92,226,206.36,226Z" transform="translate(-86.48 -194.64)"/>
    <path d="M183.89,223.52q0,4.68,0,9.38c0,.4-.15.46-.51.45a4.45,4.45,0,0,1-2.24-.68.83.83,0,0,0-.65-.07c-1.9.91-3.95.81-6,.93a1.23,1.23,0,0,1-.46-.1,4.09,4.09,0,0,0-.47-.23c-1.64-.45-2.24-1.82-2.85-3.19a1.15,1.15,0,0,1-.06-.37,9,9,0,0,0,0-.9,6,6,0,0,1,.95-3.93,2.84,2.84,0,0,1,.52-.52l.13-.07a8.11,8.11,0,0,1,4.24-1.17c1.12,0,2.24-.19,3.37-.28.3,0,.44-.11.36-.44-.13-.55-.22-1.11-.39-1.65a.85.85,0,0,0-.94-.62c-2,.06-4,.08-6,.11-.77,0-1.06-.29-1.06-1v-1.86a.36.36,0,0,1,.34-.42,36.35,36.35,0,0,1,6.67-.67,14.83,14.83,0,0,1,3.23.73c.1,0,.2.15.28.24a6.22,6.22,0,0,1,1.56,4.13c0,.74,0,1.49,0,2.24Zm-3.27,4.16c0-.42,0-.85,0-1.28s-.08-.43-.4-.43c-1,0-2,0-2.95,0a3.06,3.06,0,0,0-2.17.91c-.09.08-.21.19-.21.3a4.45,4.45,0,0,0,.33,2.36.68.68,0,0,0,.67.4,17.33,17.33,0,0,0,4.37-.55.57.57,0,0,0,.34-.4C180.64,228.57,180.62,228.13,180.62,227.68Z" transform="translate(-86.48 -194.64)"/>
    <path d="M142.4,224.61c0-.53,0-1.05,0-1.57-.15-2,.81-3.67,1.88-5.26a.78.78,0,0,1,.33-.26,9.28,9.28,0,0,1,3.68-1.33c.85-.08,1.71.09,2.56,0,1.54-.07,2.7.81,4,1.47.33.17.53.61.78.93a8.23,8.23,0,0,1,1.63,5,16.53,16.53,0,0,1-.46,5.05,5.62,5.62,0,0,1-5.76,4.63c-.55,0-1.11,0-1.66.1a11.21,11.21,0,0,1-2.83-.51,4,4,0,0,1-2.37-1.61,5.68,5.68,0,0,1-1.11-1.79A11.23,11.23,0,0,1,142.4,224.61Zm3.84.44c0,.78,0,1.55,0,2.33a.85.85,0,0,0,.06.46c.53.75.92,1.61,2,1.84a4,4,0,0,0,2.37.13,3.31,3.31,0,0,0,2.09-1.62,2.35,2.35,0,0,0,.3-.95c0-1.16,0-2.32,0-3.48a5.05,5.05,0,0,0-.64-2.83,1.65,1.65,0,0,0-.49-.53,4.57,4.57,0,0,0-2.62-.65,4.22,4.22,0,0,0-2.2.76.78.78,0,0,0-.24.34,4.86,4.86,0,0,0-.66,2.91C146.28,224.19,146.24,224.62,146.24,225.05Z" transform="translate(-86.48 -194.64)"/>
    <path d="M227.92,229.45c.1.82.21,1.57.29,2.33a.92.92,0,0,1-.79,1,25.45,25.45,0,0,1-6.39.48,9.43,9.43,0,0,1-2.83-.76c-.48-.2-.81-.74-1.22-1.11a4.46,4.46,0,0,1-1.07-1.6,8.39,8.39,0,0,1-.81-4.38,5,5,0,0,0,0-.95,10.12,10.12,0,0,1,.75-4.84,5.65,5.65,0,0,1,3-2.93,7.31,7.31,0,0,1,3.59-.59,49.58,49.58,0,0,1,5,.72c.83.15.9.37.75,1.21-.1.56-.18,1.12-.26,1.69,0,.3-.14.4-.49.38-2-.16-4-.28-6.07-.4a.79.79,0,0,0-.47.18c-.48.41-1,.82-1.42,1.27a1,1,0,0,0-.22.62c0,1.6,0,3.21.07,4.8a5.76,5.76,0,0,0,.53,2.25,1.79,1.79,0,0,0,1.57.93c1.53,0,3.07-.1,4.61-.17C226.62,229.59,227.24,229.51,227.92,229.45Z" transform="translate(-86.48 -194.64)"/>
    <path d="M240.19,219.83l-3.09.13c-1.28,0-1-.07-1,1,0,2.49,0,5,0,7.48a1,1,0,0,0,1.1,1.13h3.07v2.44c0,.85,0,.91-.82,1a22.31,22.31,0,0,1-4.08.11,3,3,0,0,1-2.35-1.41,4.75,4.75,0,0,1-.71-2.69c0-2.85-.06-5.71-.08-8.56,0-.41-.16-.53-.53-.53s-.69,0-1,0-.4-.1-.4-.4c0-.82,0-1.65,0-2.47,0-.24.1-.34.34-.35.4,0,.79,0,1.19-.07s.45-.12.45-.45c0-.75.07-1.49.08-2.24,0-.3.09-.46.4-.52.91-.16,1.8-.35,2.7-.52a.46.46,0,0,1,.59.46c.05.63.09,1.26.1,1.89,0,1.48-.24,1.21,1.13,1.3.84,0,1.68.07,2.52.08.36,0,.54.12.52.53,0,.81,0,1.62,0,2.43C240.23,219.64,240.21,219.68,240.19,219.83Z" transform="translate(-86.48 -194.64)"/>
    <path d="M164.59,213.11c0,1,0,2,0,2.93,0,.64,0,.64.66.64,1,0,2,0,3.05,0,.46,0,.57.16.55.58,0,.74-.07,1.49-.06,2.23,0,.43-.19.54-.57.55-1.08,0-2.16.1-3.23.13-.32,0-.41.13-.41.43,0,2.65,0,5.3,0,8a1.35,1.35,0,0,0,1.22,1.25c.87,0,1.74,0,2.61.1a.55.55,0,0,1,.4.33c.14.64.24,1.28.33,1.92.06.38-.54,1-1,1-1.62,0-3.24,0-4.85,0-.27,0-.52-.27-.79-.4a2.79,2.79,0,0,1-1.33-1.8,9.16,9.16,0,0,1-.47-3.12c0-2.4,0-4.79,0-7.19,0-.45-.13-.63-.58-.62s-.76-.05-1.14-.06c-.23,0-.35-.07-.35-.33,0-.84,0-1.68,0-2.52a.46.46,0,0,1,.32-.34,7.2,7.2,0,0,1,1.14-.07c.35,0,.5-.13.5-.51q0-1.14.09-2.28a.46.46,0,0,1,.21-.36A6.9,6.9,0,0,1,164.59,213.11Z" transform="translate(-86.48 -194.64)"/>
    <path d="M196.71,216.37c0,1.1,0,2.15,0,3.19a.5.5,0,0,1-.34.29,12.89,12.89,0,0,0-3.91,1.57.73.73,0,0,0-.44.74c0,3.27,0,6.55,0,9.82a1.06,1.06,0,0,1-1.06,1.07c-.77,0-1.55-.08-2.32-.09-.32,0-.4-.15-.39-.44q0-7.7,0-15.39c0-.34.13-.43.45-.43.93,0,1.87-.07,2.8-.08a.48.48,0,0,1,.38.27,7.22,7.22,0,0,1,.29,1C193.65,217.27,195,216.32,196.71,216.37Z" transform="translate(-86.48 -194.64)"/>
    <path d="M231.71,267.09c.09-.28.12-.61.24-.65a2.24,2.24,0,0,1,.93,0c.09,0,.18.3.18.46,0,2.21,0,4.41,0,6.62a10.09,10.09,0,0,0,0,1.1,6.68,6.68,0,0,1-.87,4,1.71,1.71,0,0,1-.39.46,4,4,0,0,1-3.2.94c-.8-.1-1.61-.15-2.42-.22-.38,0-.56-.22-.51-.62a5.22,5.22,0,0,0,0-.69,1.1,1.1,0,0,1,.27,0c.84.15,1.69.27,2.52.46a2.57,2.57,0,0,0,2.9-1.68c.21-.8.34-1.63.5-2.44l-.13,0c-.43.33-.84.69-1.29,1a2.89,2.89,0,0,1-.83.27c-.12,0-.26,0-.38,0a3.73,3.73,0,0,1-3-.94c-.07-.06-.17-.11-.21-.19-.41-.89-1.1-1.68-1-2.77a4.18,4.18,0,0,0,0-1,5.05,5.05,0,0,1,.93-3.63,1.06,1.06,0,0,1,.26-.33c.48-.36,1-.7,1.46-1a.54.54,0,0,1,.3-.1c.61,0,1.21,0,1.81,0a1,1,0,0,1,.47.19Zm-5.17,4.3h.07c0,.24,0,.48,0,.72a2.47,2.47,0,0,0,1.16,2.41c.53.4,1,.71,1.65.44.05,0,.12,0,.18,0a2.16,2.16,0,0,0,1.76-1.3,6.08,6.08,0,0,0,.29-4.4,3.66,3.66,0,0,0-.5-1.12c-.38-.48-2.52-.89-3-.5s-1.37.91-1.44,1.84C226.68,270.1,226.6,270.74,226.54,271.39Z" transform="translate(-86.48 -194.64)"/>
    <path d="M125.12,257.92c-.1.05-.13.07-.16.07-1.08.12-1.08.12-1.08-.95,0-2.67,0-5.33,0-8,0-.18.09-.5.17-.52a4.11,4.11,0,0,1,1,0s.07.19.07.29,0,.4,0,.73c.41-.33.72-.6,1-.84a2.82,2.82,0,0,1,2.92-.25,1.58,1.58,0,0,1,1.16,1.47h.13c.22-.29.43-.59.68-.86a3,3,0,0,1,.67-.49,3.81,3.81,0,0,1,2.94-.25,2.65,2.65,0,0,1,.53.27s.06.08.1.11a3.34,3.34,0,0,1,1.14,3c-.1,1.88,0,3.77,0,5.66v.49c-.08,0-.1.07-.13.07-1.12.11-1.12.11-1.12-1,0-2,0-3.94,0-5.91,0-.7-.52-1.09-.91-1.55-.09-.11-.39,0-.59,0a2,2,0,0,0-2.48,1.43,3.38,3.38,0,0,0-.32,1.1c0,1.85,0,3.69,0,5.53,0,.43-.14.58-.55.52H130c-.34,0-.43-.12-.43-.45,0-1.85,0-3.71,0-5.57a3.68,3.68,0,0,1,0-.47c.15-.87-.43-1.38-1-1.9a.84.84,0,0,0-.43-.13c-.16,0-.33,0-.48,0a1.68,1.68,0,0,0-1.87,1.13,5.35,5.35,0,0,0-.66,2.55C125.13,254.75,125.12,256.33,125.12,257.92Z" transform="translate(-86.48 -194.64)"/>
    <path d="M181.14,276h-1.23a3.49,3.49,0,0,1,0-.44q-.06-6.37-.1-12.75c0-1.21,0-1.21,1.34-1v5.8a8.65,8.65,0,0,0,.77-.68c.74-.87,1.74-.82,2.74-.83a2.7,2.7,0,0,1,2.29,1.38,2.54,2.54,0,0,1,.32,1,14,14,0,0,1,.18,1.7c.05,1.72.06,3.43.09,5.14,0,.17,0,.35,0,.59a6.81,6.81,0,0,1-1,0c-.11,0-.25-.26-.26-.4,0-1.12-.07-2.25-.1-3.38a21.81,21.81,0,0,0-.14-3,5,5,0,0,0-.86-1.61c0-.06-.2-.06-.31-.07a4.51,4.51,0,0,1-.52,0,2.54,2.54,0,0,0-2.42,1,1.18,1.18,0,0,0-.24.44,18.6,18.6,0,0,0-.5,6C181.13,275.21,181.14,275.59,181.14,276Z" transform="translate(-86.48 -194.64)"/>
    <path d="M145.09,256.94c-.47.32-1,.62-1.39,1a1.53,1.53,0,0,1-1.23.34c-.63-.08-1.27-.09-1.9-.14a.63.63,0,0,1-.35-.09c-.66-.64-1.51-1.16-1.26-2.3.1-.51-.12-1.05.26-1.55a3.67,3.67,0,0,1,2.25-1.63c1-.18,2-.29,3-.38.39,0,.49-.18.48-.52a3,3,0,0,0-.81-2,.8.8,0,0,0-.59-.17c-1.08.15-2.15.33-3.23.49a.76.76,0,0,1-.2,0c0-.36,0-.72,0-1.08,0-.1.18-.23.31-.29a8.2,8.2,0,0,1,3.27-.34,2.25,2.25,0,0,1,1.83.95,2.57,2.57,0,0,1,.71,1.9c0,1.94.06,3.87.11,5.8,0,.33.08.66.12,1.05-.36,0-.79.12-1.06,0S145.21,257.33,145.09,256.94Zm-.27-2.66a3.33,3.33,0,0,0,0-.79c0-.12-.24-.31-.34-.3a21.65,21.65,0,0,0-2.43.43c-1.59.43-1.64.61-1.57,2.34a1,1,0,0,0,.1.41.53.53,0,0,0,.24.27,2.56,2.56,0,0,0,2.27.25,6.06,6.06,0,0,1,.68-.2c.12-.05.29-.12.34-.23C144.44,255.74,145,255.09,144.82,254.28Z" transform="translate(-86.48 -194.64)"/>
    <path d="M137.07,276.49a3.32,3.32,0,0,1-2.45-.72,6.26,6.26,0,0,1-2-2.61,1.24,1.24,0,0,1,0-.43c0-.66,0-1.33,0-2a4.54,4.54,0,0,1,3.3-4.32,15.23,15.23,0,0,1,1.79,0,2.79,2.79,0,0,1,2,.73,4.18,4.18,0,0,1,1.69,4,9.78,9.78,0,0,0-.1,1.52,2.52,2.52,0,0,1-.84,2.12,10.82,10.82,0,0,1-1.93,1.53A3.66,3.66,0,0,1,137.07,276.49Zm0-9.09c-.41,0-.93-.09-1.2.11A3.87,3.87,0,0,0,134.5,269a5.42,5.42,0,0,0,0,4.56,2.11,2.11,0,0,0,1.45,1.38c.35.08.73.4,1,.32.89-.26,1.89-.35,2.35-1.43a5.25,5.25,0,0,0,.58-3.83c-.14-.42-.11-1-.38-1.25C138.86,268.06,138.28,267.09,137,267.4Z" transform="translate(-86.48 -194.64)"/>
    <path d="M115.38,253.26c0,.47,0,1,0,1.42a3.4,3.4,0,0,1-1.53,2.65,11.41,11.41,0,0,1-1.12.81c-.06,0-.14.11-.21.11-1.42,0-2.89.32-4.09-.83a7,7,0,0,1-1.64-2.25,1,1,0,0,1-.1-.41,18.06,18.06,0,0,1,0-2.85,4.57,4.57,0,0,1,2.39-3.31c.92-.54,1.9-.3,2.87-.34a3.27,3.27,0,0,1,2.62,1.48,3.31,3.31,0,0,1,.9,2.71c0,.27,0,.54-.06.81Zm-7.32-.25a7.78,7.78,0,0,0,1,3.32c0,.08.17.14.26.19a3,3,0,0,0,3.22.16,1.88,1.88,0,0,0,.62-.53,5.3,5.3,0,0,0,.74-4.83,3.14,3.14,0,0,0-.65-1.17,2.5,2.5,0,0,0-2.4-.89,5.42,5.42,0,0,1-.57,0c-.09,0-.22,0-.27,0a6.59,6.59,0,0,0-1.36,1.55A9.78,9.78,0,0,0,108.06,253Z" transform="translate(-86.48 -194.64)"/>
    <path d="M241.58,256.45c0,.38-.06.79-.12,1.19,0,.08-.15.19-.25.22a8.94,8.94,0,0,1-3.63.3,4.11,4.11,0,0,1-3.06-3.14,12.32,12.32,0,0,1,0-4.11,1.11,1.11,0,0,1,.14-.34,6.18,6.18,0,0,1,2.6-2.31,1.14,1.14,0,0,1,.55-.08c.62,0,1.24.08,1.85.15a1.08,1.08,0,0,1,.53.25,5.09,5.09,0,0,1,1.9,4.18v.88h-6.41a4,4,0,0,0,1.56,3.13,3.14,3.14,0,0,0,1.92.26A15.53,15.53,0,0,0,241.58,256.45Zm-.91-4.06a4.83,4.83,0,0,0-1.17-2.66.62.62,0,0,0-.36-.18q-.85-.08-1.71-.09a.5.5,0,0,0-.34.11,4.61,4.61,0,0,0-1.46,2.82Z" transform="translate(-86.48 -194.64)"/>
    <path d="M214.44,271.46a4.64,4.64,0,0,1,1-3.48,4.1,4.1,0,0,1,3.45-1.64,4.33,4.33,0,0,1,3.29,1.31,5.19,5.19,0,0,1,.69,1.11,3,3,0,0,1,.4,2.08,10,10,0,0,0-.09,1.9,2.68,2.68,0,0,1-.9,2.11c-.58.53-1.22,1-1.85,1.48a.86.86,0,0,1-.45.11,12,12,0,0,1-2,0,3.42,3.42,0,0,1-1.37-.6,4.86,4.86,0,0,1-2-2.48A8.27,8.27,0,0,1,214.44,271.46Zm4.47-4.06c-.4,0-.91-.1-1.16.11a4.54,4.54,0,0,0-1.4,1.63,5.26,5.26,0,0,0,.09,4.55,2.33,2.33,0,0,0,1.23,1.24,2.57,2.57,0,0,0,2.34,0c.25-.13.61-.18.74-.39a5.18,5.18,0,0,0,1-4.6c-.13-.4-.12-.93-.38-1.2C220.73,268,220.15,267.07,218.91,267.4Z" transform="translate(-86.48 -194.64)"/>
    <path d="M204.58,276.5a3.31,3.31,0,0,1-2.37-.69,6,6,0,0,1-2-2.58,1.48,1.48,0,0,1-.06-.47c0-.73,0-1.47,0-2.19a4.5,4.5,0,0,1,3.35-4.18c.56-.13,1.18.09,1.75,0a3.15,3.15,0,0,1,2.81,1.48,3.44,3.44,0,0,1,.91,2.58c-.1.93-.11,1.87-.14,2.8a2.41,2.41,0,0,1-.92,1.61,7.92,7.92,0,0,1-1.82,1.44A4.09,4.09,0,0,1,204.58,276.5Zm.07-9.07c-1.23,0-1.23,0-2,.77-.15.16-.32.31-.46.48a1.24,1.24,0,0,0-.25.39,5.65,5.65,0,0,0,.16,4.74c.24.44.4.87,1,1s1,.55,1.37.45c.83-.2,1.8-.26,2.27-1.24a5.63,5.63,0,0,0,.82-3.44c-.09-.51-.24-1-.37-1.52a.94.94,0,0,0-.17-.38C206.29,268,205.72,267.07,204.65,267.43Z" transform="translate(-86.48 -194.64)"/>
    <path d="M168.87,274.55l0,.1c.1,1.22-.09,1.46-1.31,1.56-.64.06-1.29.1-1.94.1a3.94,3.94,0,0,1-3.52-2.2,6.76,6.76,0,0,1-.37-1.8A7.23,7.23,0,0,1,162,269a4.23,4.23,0,0,1,1.89-2.13,2.63,2.63,0,0,1,2.14-.47c.69.13,1.37,0,1.94.66a5.23,5.23,0,0,1,1.45,2.87c.06.49.07,1,.12,1.47,0,.27-.06.37-.34.37-.85,0-1.71,0-2.56,0l-3.14.05a2.3,2.3,0,0,0-.39.05,4.1,4.1,0,0,0,1.46,3,1.78,1.78,0,0,0,1.15.34,20.81,20.81,0,0,0,2.33-.35A4.65,4.65,0,0,0,168.87,274.55Zm-.76-4a4.47,4.47,0,0,0-.61-1.92,1.77,1.77,0,0,0-1.61-1,2.09,2.09,0,0,0-2.09,1,6.43,6.43,0,0,0-.79,2Z" transform="translate(-86.48 -194.64)"/>
    <path d="M235.08,280a2.16,2.16,0,0,1,0-.29c0-.7,0-.76.68-.7a1.29,1.29,0,0,0,1.5-1,3.51,3.51,0,0,1,.48-.92,1.53,1.53,0,0,0,.08-1.6c-1-2.9-2.06-5.83-3.07-8.75a2.3,2.3,0,0,1-.07-.36,7.53,7.53,0,0,1,1.17,0,.73.73,0,0,1,.39.43c.74,2.24,1.46,4.49,2.2,6.73a.65.65,0,0,0,.28.38l1-2.91c.48-1.44,1-2.89,1.46-4.32a.61.61,0,0,1,.43-.31,7.08,7.08,0,0,1,1,0c-.48,1.4-.93,2.75-1.4,4.09-.88,2.48-1.78,5-2.67,7.43a2,2,0,0,1-.11.26c-.49,1.24-1.2,2.15-2.74,1.81A3.1,3.1,0,0,0,235.08,280Z" transform="translate(-86.48 -194.64)"/>
    <path d="M190.5,257.84c0-1.33,0-2.57,0-3.8s-.2-2.34-.34-3.5a1.53,1.53,0,0,0-1.29-1.13,2.94,2.94,0,0,1-.42,0,2.21,2.21,0,0,0-2.29,1,3.16,3.16,0,0,0-.55,1.82c-.11,1.71-.12,3.43-.17,5.14,0,.18,0,.37,0,.59h-1.22c0-.19,0-.34,0-.5,0-2.82,0-5.65,0-8.48,0-.47.18-.56.58-.53s.79-.09.69.52a2.85,2.85,0,0,0,0,.54,11.26,11.26,0,0,0,1.25-.88,1.83,1.83,0,0,1,1.75-.55c.4.08.83,0,1.23.13a2,2,0,0,1,.62.3c.09.05.14.17.23.23a2.72,2.72,0,0,1,1.07,2.37c.08,2.11.1,4.22.15,6.33,0,.32-.08.47-.43.44S190.83,257.84,190.5,257.84Z" transform="translate(-86.48 -194.64)"/>
    <path d="M191.56,267.65a16.46,16.46,0,0,0,1.44-1,1.61,1.61,0,0,1,1.47-.43,2.76,2.76,0,0,0,.57.06,2.42,2.42,0,0,1,2,.95,2.23,2.23,0,0,1,.6,1.5c.1,1.39.16,2.78.21,4.18,0,.89,0,1.78,0,2.67,0,.32-.1.48-.44.44a1.31,1.31,0,0,0-.28,0c-.38,0-.52-.09-.53-.5q0-2.36-.09-4.71c0-.76-.17-1.51-.28-2.26a1.78,1.78,0,0,0-1.26-1h-.38c-1.48,0-1.49,0-2.44,1.13a1.23,1.23,0,0,0-.27.64c-.14,1.52-.26,3.06-.36,4.59,0,.47,0,1,0,1.43,0,.76-.28,1-1,.75-.11,0-.2-.28-.2-.44,0-2.59,0-5.17,0-7.76,0-.32,0-.64,0-1s.09-.41.38-.38a1.22,1.22,0,0,0,.33,0c.42-.06.6.1.54.53A3.44,3.44,0,0,0,191.56,267.65Z" transform="translate(-86.48 -194.64)"/>
    <path d="M92,257.93H90.82c0-.16,0-.31,0-.46q0-4.23,0-8.48c0-.18.08-.51.16-.52a3.65,3.65,0,0,1,1,0s.08.19.08.29,0,.4,0,.75a8.29,8.29,0,0,0,1.15-.81,2.66,2.66,0,0,1,2.23-.67,2.81,2.81,0,0,1,2.42,1.41,3.51,3.51,0,0,1,.39,1.69c.08,2,.09,4.09.15,6.14,0,.48-.15.62-.6.57a4.54,4.54,0,0,0-.65,0v-.62c0-1.68-.06-3.37-.13-5.05a13.51,13.51,0,0,0-.27-1.88,1.77,1.77,0,0,0-1.26-.88c-.49,0-1,0-1.48,0a.68.68,0,0,0-.43.15,3.44,3.44,0,0,0-1.35,2.55c0,1.71-.11,3.42-.17,5.14C92,257.46,92,257.66,92,257.93Z" transform="translate(-86.48 -194.64)"/>
    <path d="M225.92,257.89h-1.17l-.06-1a3,3,0,0,0-.55.42c-.84,1.11-2,1-3.19.89a3,3,0,0,1-2.39-1.8,1.19,1.19,0,0,1-.1-.46c-.1-2.31-.19-4.62-.29-6.94,0-.15,0-.31,0-.55a6.55,6.55,0,0,1,1.09,0c.1,0,.22.3.23.47,0,1.68,0,3.36,0,5a7.73,7.73,0,0,0,.64,2.52c0,.11.19.2.31.26,1.2.63,1.25.65,2.71.07a1.72,1.72,0,0,0,.66-.6c.94-1.24.71-2.71.79-4.12.06-1.23.08-2.47.12-3.73h1.21Z" transform="translate(-86.48 -194.64)"/>
    <path d="M159,276h-1.24v-.59c0-3.49,0-7,0-10.48,0-.44-.11-.61-.58-.6-1,0-1.93-.08-2.9-.07-.7,0-.44-.52-.51-.85s.25-.35.49-.35c2.77,0,5.53,0,8.29,0,.56,0,.51.29.52.65s0,.67-.54.65c-1,0-2,0-2.95,0-.46,0-.6.14-.59.6,0,3.51,0,7,0,10.52Z" transform="translate(-86.48 -194.64)"/>
    <path d="M193.83,256.71c.77.1,1.46.22,2.15.29a5.26,5.26,0,0,0,1.05,0,1.3,1.3,0,0,0,1-2.3,9.54,9.54,0,0,0-1.48-1,7.77,7.77,0,0,1-2.24-1.66,1,1,0,0,1-.21-.3,2.55,2.55,0,0,1,2.19-3.39,12,12,0,0,1,3,.36c.11,0,.31.3.27.39-.07.24-.05.61-.49.57l-2.47-.17a1.32,1.32,0,0,0-1.19,1,1.24,1.24,0,0,0,.77,1.49c.85.49,1.72,1,2.54,1.5a6.39,6.39,0,0,1,1,1,.64.64,0,0,1,.15.38,4.27,4.27,0,0,1-.37,2.23,1.64,1.64,0,0,1-.53.55c-1.57.95-3.24.59-4.9.31a.38.38,0,0,1-.24-.28C193.81,257.38,193.83,257.08,193.83,256.71Z" transform="translate(-86.48 -194.64)"/>
    <path d="M166.85,256.71c.79.11,1.47.22,2.16.29a3.11,3.11,0,0,0,1.14,0,2.38,2.38,0,0,0,1-.6,1.07,1.07,0,0,0-.17-1.67c-.62-.5-1.34-.88-2-1.35s-1.13-.86-1.69-1.3a.73.73,0,0,1-.22-.3,2.66,2.66,0,0,1,2.65-3.52,20.84,20.84,0,0,1,2.35.36c.16,0,.41.29.4.4-.05.29-.13.63-.59.59-.81-.07-1.61-.1-2.42-.14a1.26,1.26,0,0,0-.44,2.42c.88.51,1.75,1,2.62,1.55a1.81,1.81,0,0,1,.47.4,3.06,3.06,0,0,1,.73,1.11,3.84,3.84,0,0,1-.48,2.47c-.06.1-.2.15-.31.21a5.2,5.2,0,0,1-3.58.58c-.41,0-.81-.14-1.22-.17s-.46-.21-.43-.53S166.85,257,166.85,256.71Z" transform="translate(-86.48 -194.64)"/>
    <path d="M178,267.63c-1-.07-2-.12-2.93-.2a.86.86,0,0,0-.8.31,3.07,3.07,0,0,1-.54.54c-1.35,1-1.35,2.42-1.23,3.93.09,1,.79,1.56,1.34,2.26a1.62,1.62,0,0,0,1.56.66c.84-.1,1.69-.15,2.62-.22a4.37,4.37,0,0,1,0,.95.6.6,0,0,1-.45.32,15.69,15.69,0,0,1-2.74,0,4.19,4.19,0,0,1-3.67-3.43c-.11-.55,0-1.14,0-1.7a4.14,4.14,0,0,1,.72-2.73,2.83,2.83,0,0,1,1.57-1.47,1.64,1.64,0,0,0,.51-.26,2.81,2.81,0,0,1,2.12-.46c.52.05,1,.17,1.56.22.37,0,.49.2.45.55S178,267.37,178,267.63Z" transform="translate(-86.48 -194.64)"/>
    <path d="M101.94,258v-.59c0-2.44,0-4.89,0-7.33,0-.49-.14-.66-.62-.61a11.84,11.84,0,0,1-1.2,0c0-.21,0-.39,0-.57,0-.33.08-.47.43-.45s.66,0,1,0,.45-.13.48-.47a28.54,28.54,0,0,1,.36-2.91,1.71,1.71,0,0,1,1.66-1.31,5.42,5.42,0,0,1,.57,0c1,0,1.07.18.94,1.22h-.84a1.24,1.24,0,0,0-1.32,1.27c0,.57-.1,1.14-.16,1.71,0,.34.08.5.45.48s.73,0,1.09,0c.63,0,.63,0,.62.64,0,.1,0,.21,0,.38-.54,0-1.06,0-1.58,0s-.58.15-.57.6c0,2.41,0,4.82,0,7.23,0,.7,0,.7-.7.7Z" transform="translate(-86.48 -194.64)"/>
    <path d="M144.38,276.07v-.62c0-2.42,0-4.85,0-7.28,0-.45-.13-.65-.59-.59a3.09,3.09,0,0,1-.43,0c-.92,0-.92,0-.84-1h1.29c.64,0,.66,0,.64-.62a8.23,8.23,0,0,1,.42-3,1.41,1.41,0,0,1,.44-.56,2.86,2.86,0,0,1,2.36-.36.38.38,0,0,1,.26.25,6.81,6.81,0,0,1,.08.88h-.85a1.25,1.25,0,0,0-1.34,1.25c-.06.65-.1,1.3-.15,2a.84.84,0,0,0,0,.24h2.07c0,.24,0,.42,0,.61s-.09.46-.43.44-.82,0-1.23,0-.55.15-.55.56c0,2.4,0,4.79,0,7.19,0,.84.15.78-.79.79C144.71,276.11,144.58,276.08,144.38,276.07Z" transform="translate(-86.48 -194.64)"/>
    <path d="M165.46,256.72a3.69,3.69,0,0,1,0,.95.71.71,0,0,1-.46.42,16.76,16.76,0,0,1-2.74.07,4,4,0,0,1-3.63-3.4,7.87,7.87,0,0,1,0-3.17,7.75,7.75,0,0,1,1.26-2.32c.15-.23.56-.27.82-.46,1.4-1,2.94-.76,4.47-.47.12,0,.25.2.3.34a1,1,0,0,1,0,.42c0,.13,0,.25,0,.43-.88-.05-1.75-.06-2.61-.16a1.23,1.23,0,0,0-1.3.44,2.29,2.29,0,0,1-.27.27c-1.25,1.25-1.35,1.25-1.41,3a4,4,0,0,0,.78,2.69c1.07,1.45,2.41,1.37,3.88,1.17C164.8,256.89,165.09,256.8,165.46,256.72Z" transform="translate(-86.48 -194.64)"/>
    <path d="M86.48,258v-13c.47,0,.94,0,1.4,0,.08,0,.18.15.22.25a.9.9,0,0,1,0,.33c0,3.95,0,7.91,0,11.86,0,.49-.14.65-.61.6S86.85,258,86.48,258Z" transform="translate(-86.48 -194.64)"/>
    <path d="M200.72,248.34h1.84c0-.59,0-1.14,0-1.69s.1-.68.56-.74a5.94,5.94,0,0,0,.71-.22c0,.75,0,1.42,0,2.09,0,.45.14.59.57.56s1,0,1.61,0v1.08c-.54,0-1.09,0-1.64,0s-.54.13-.54.55c0,1.84,0,3.68,0,5.52a1.6,1.6,0,0,0,.51,1.15,1,1,0,0,0,1.42.32,1,1,0,0,1,.29-.08s.05.05.05.07c0,1,0,1-1.05,1.14a3.11,3.11,0,0,0-.43,0c-.84.22-1.33-.28-1.76-.87a.82.82,0,0,1-.14-.48c0-1.84-.06-3.68-.09-5.52,0-.49-.05-1-.05-1.47,0-.29-.13-.36-.38-.35s-.63,0-1,0-.58-.13-.52-.54A4.48,4.48,0,0,0,200.72,248.34Z" transform="translate(-86.48 -194.64)"/>
    <path d="M181.46,251.45c0,2,0,4,0,5.95,0,.44-.13.57-.56.57-1,0-1,0-1-1,0-3.83,0-7.66,0-11.48,0-.45.13-.57.56-.56,1,0,1,0,1,1Z" transform="translate(-86.48 -194.64)"/>
    <path d="M211.13,249.41v-1.08c.47,0,.94,0,1.4,0s.46-.12.44-.44,0-.86,0-1.29,0-.65.49-.68a3.93,3.93,0,0,0,.69-.23v1.74c0,1.05-.1.87.88.89h1.14l.12,0a1.56,1.56,0,0,1,.05.16c.08.87.07.87-.8.87h-1c-.29,0-.39.11-.39.39,0,2,0,4,0,5.95a.94.94,0,0,0,.22.5c.78.86.79.85,2.1.61l-.09,1.16c-.77,0-1.53.08-2.28.07-.32,0-1-1-1-1.36q-.06-3.27-.1-6.56c0-.76,0-.76-.74-.76Z" transform="translate(-86.48 -194.64)"/>
    <path d="M153.26,256.82a6,6,0,0,1-.07.9.43.43,0,0,1-.28.28c-.65.06-1.3.1-1.95.1-.35,0-1.11-1-1.12-1.34l0-2.95c0-1.28-.06-2.57-.05-3.85,0-.46-.16-.58-.58-.56s-.82,0-1.26,0v-1.08c.47,0,.92,0,1.37,0s.46-.1.44-.44,0-.92,0-1.38.09-.53.45-.58a3.66,3.66,0,0,0,.66-.24c0,.71,0,1.37,0,2,0,.49.13.65.61.61s1,0,1.52,0a1,1,0,0,1,.06.21c.06.8.05.79-.72.8-.47,0-1.09-.11-1.36.13s-.1.86-.1,1.32c0,1.52,0,3.05,0,4.57a1.51,1.51,0,0,0,.45,1.13c.44.47.86.76,1.5.42A1.67,1.67,0,0,1,153.26,256.82Z" transform="translate(-86.48 -194.64)"/>
    <path d="M233.05,256.83c0,.35-.05.66-.11,1a.32.32,0,0,1-.25.21c-.65.05-1.3.09-1.95.1a.69.69,0,0,1-.35-.18,2.25,2.25,0,0,1-.82-1.91c0-2,0-4,0-6,0-.48-.14-.67-.62-.6a3.09,3.09,0,0,1-.43,0c-.92,0-1-.07-.76-1.08.44,0,.89,0,1.35,0s.47-.13.46-.47,0-.86,0-1.29,0-.62.47-.65a1.89,1.89,0,0,0,.48-.19,2.93,2.93,0,0,1,0,.37c0,.53,0,1,0,1.57s0,.64.62.64c.41,0,.82,0,1.24,0s.32.29.33.53,0,.49-.33.48-1,0-1.43,0c-.3,0-.44.08-.44.4,0,2,0,4,0,6,0,.2.2.4.33.59a1.31,1.31,0,0,0,1.78.56A1.69,1.69,0,0,1,233.05,256.83Z" transform="translate(-86.48 -194.64)"/>
    <path d="M117.86,248.36h1.23v1.16a4.81,4.81,0,0,1,2.35-1.42c.67-.22.82-.1.81.59,0,1,.17.94-.87.87a1.42,1.42,0,0,0-1.55,1,8,8,0,0,0-.59,2.28c-.12,1.49-.11,3-.15,4.47v.64a5.58,5.58,0,0,1-1,0c-.11,0-.24-.29-.24-.45,0-1.51,0-3,0-4.52v-4C117.83,248.72,117.85,248.55,117.86,248.36Z" transform="translate(-86.48 -194.64)"/>
    <path d="M211.1,276.05v-.56q0-6.45,0-12.9c0-.18.06-.51.14-.52a3,3,0,0,1,1,0s.09.31.09.48q0,5.25,0,10.52c0,.82,0,1.65,0,2.47,0,.41-.12.55-.51.5C211.61,276,211.39,276.05,211.1,276.05Z" transform="translate(-86.48 -194.64)"/>
    <path d="M155.09,258v-3.72c0-1.78,0-3.56,0-5.34,0-.38.11-.53.48-.48a1.61,1.61,0,0,0,.38,0c.31,0,.42.1.42.41,0,1,0,1.94,0,2.91,0,1.87,0,3.75,0,5.62,0,.49-.14.66-.61.6C155.55,257.94,155.35,258,155.09,258Z" transform="translate(-86.48 -194.64)"/>
    <path d="M209.15,248.42c0,.22,0,.36,0,.5,0,2.84,0,5.68,0,8.52,0,.51-.22.54-.6.52s-.67.06-.67-.51c0-2.79,0-5.58,0-8.38,0-.65,0-.65.64-.65Z" transform="translate(-86.48 -194.64)"/>
    <path d="M302.18,247.46a2.6,2.6,0,1,1-5.2,0,2.6,2.6,0,0,1,5.2,0Zm-.53,0a2.07,2.07,0,0,0-4.14,0,2.07,2.07,0,1,0,4.14,0Z" transform="translate(-86.48 -194.64)"/>
    <path d="M156.35,244.18c0,.51,0,1,0,1.49a.34.34,0,0,1-.2.25c-.76.23-1,0-1-.74C155.09,244.24,155.3,244.06,156.35,244.18Z" transform="translate(-86.48 -194.64)"/>
    <path d="M209.17,244.2c0,.49,0,1,0,1.49a.42.42,0,0,1-.26.24c-.88.15-1,.06-1-.83S208.19,244,209.17,244.2Z" transform="translate(-86.48 -194.64)"/>
    <path d="M292,239.55a.81.81,0,0,1-1.16.38c-.57-.22-1.18-.35-1.76-.52l-.09.09,1.23,1.65-.55.49-2.18-2.92a.67.67,0,0,1,.89-.31c.64.21,1.29.39,1.94.58l.08-.11c-.44-.47-.88-.95-1.38-1.51l.48-.44Z" transform="translate(-86.48 -194.64)"/>
    <path d="M273.66,244.45c.09-.65.18-1.3.28-2h.63l-.36,3.65c-.51,0-.86-.06-1-.59s-.5-1.16-.82-1.88c-.1.32-.16.51-.21.71s-.16.61-.23.92c-.12.54-.15.56-.8.34.15-.69.31-1.4.46-2.1.07-.31.13-.62.23-.93a.91.91,0,0,1,.22-.39c.21.06.49.14.58.31.3.54.53,1.11.79,1.67a1.48,1.48,0,0,0,.16.27Z" transform="translate(-86.48 -194.64)"/>
    <path d="M261.71,235.74l.48.45-2.81,2.43c-.37-.3-.52-.57-.34-1,.26-.61.44-1.25.66-1.88l-.09-.1-1.72,1.14-.4-.58,2.85-1.92a.32.32,0,0,1,.28,0,1,1,0,0,1,.15.59c-.16.6-.38,1.17-.58,1.76a.56.56,0,0,0,0,.41Z" transform="translate(-86.48 -194.64)"/>
    <path d="M267.22,244.22c.43-1,.85-2,1.3-3a.43.43,0,0,1,.4-.12c.41.13.8.3,1.2.47a1.05,1.05,0,0,1,.73.91,1,1,0,0,1-.61,1,.76.76,0,0,0-.27.52,8.44,8.44,0,0,0,.08,1.12c-.62.09-.77,0-.79-.58,0-.24,0-.48,0-.71,0-.42-.27-.55-.56-.57-.12,0-.29.24-.4.4a1.66,1.66,0,0,0-.18.38C267.85,244.59,267.85,244.59,267.22,244.22Zm2.42-1.16a2.33,2.33,0,0,0,.44-.56c.08-.23-.57-.72-.94-.65-.16,0-.36.35-.37.54C268.76,242.91,269.32,242.72,269.64,243.06Z" transform="translate(-86.48 -194.64)"/>
    <path d="M287.91,241.87a1.78,1.78,0,0,1-1.78,1.79,1.82,1.82,0,0,1-1.87-1.8,1.7,1.7,0,0,1,1.84-1.75A1.66,1.66,0,0,1,287.91,241.87Zm-1.8,1.09a1.11,1.11,0,0,0,1.19-1.09,1.2,1.2,0,1,0-2.39-.12A1.21,1.21,0,0,0,286.11,243Z" transform="translate(-86.48 -194.64)"/>
    <path d="M265.64,239.3l2,1.25-.31.49-.93-.51c-.62-.35-.62-.35-1,.39l1,.67-.25.42a3.72,3.72,0,0,1-.63-.35c-.39-.31-.65-.22-.85.2,0,.11-.12.22-.2.37.45.27.88.54,1.32.79.21.12.29.27.11.44a.48.48,0,0,1-.41.08c-.66-.38-1.3-.79-2-1.22Z" transform="translate(-86.48 -194.64)"/>
    <path d="M292.56,239.07q-.94-1.51-1.86-3a.34.34,0,0,1,0-.31c.18-.31.36-.53.82-.36,1,.38,2.07.7,3.12,1-.12.39-.32.55-.71.4a.46.46,0,0,0-.4.11,5.72,5.72,0,0,0-.68.86.46.46,0,0,0,0,.41C293.13,238.59,292.92,238.82,292.56,239.07Zm.48-2.55-1.35-.45-.08.11.75,1.25Z" transform="translate(-86.48 -194.64)"/>
    <path d="M278.47,245.86c-.38.2-.65.22-.77-.23a.38.38,0,0,0-.06-.13c-.2-.23-1.61-.09-1.69.2-.13.47-.42.48-.86.37.37-1.12.72-2.23,1.13-3.31.06-.16.42-.22.65-.26.08,0,.25.12.29.22C277.61,243.75,278,244.79,278.47,245.86Zm-1.16-1-.56-1.36h-.13l-.45,1.41Z" transform="translate(-86.48 -194.64)"/>
    <path d="M280.9,245.72c-.67.32-.73.3-.85-.36s-.26-1.34-.37-2c-.05-.28-.15-.43-.47-.35a1,1,0,0,1-.52,0,.47.47,0,0,1-.28-.27.34.34,0,0,1,.17-.31c.88-.2,1.76-.37,2.67-.55l.15.53a6.29,6.29,0,0,1-.75.28c-.34.08-.37.25-.3.55C280.55,244.09,280.72,244.91,280.9,245.72Z" transform="translate(-86.48 -194.64)"/>
    <path d="M261.13,240.26l1.95-2.2-.84-.75c.22-.41.4-.51.75-.2.6.56,1.24,1.08,1.89,1.63l-.33.4-.23-.13c-.76-.53-.76-.53-1.34.16l-.94,1.14C261.64,240.8,261.62,240.8,261.13,240.26Z" transform="translate(-86.48 -194.64)"/>
    <path d="M296.08,233.12l.51.26-1.22,2.24-3.18-1.77.29-.63c.78.43,1.52.81,2.23,1.24.34.2.52.18.7-.18S295.84,233.54,296.08,233.12Z" transform="translate(-86.48 -194.64)"/>
    <path d="M284.08,244.74l-.7.24-1.18-3.35c.65-.39.7-.37.93.31C283.43,242.85,283.74,243.76,284.08,244.74Z" transform="translate(-86.48 -194.64)"/>
    <path d="M256.92,235.3l-.37-.68,3.12-1.83.39.66Z" transform="translate(-86.48 -194.64)"/>
    <path d="M268.54,206.31c-.58.59-1,.14-1.34-.16s-.52-.39-1.09,0l.3.57c.33.59.32.62-.4.89l-1.77-3.1a19,19,0,0,1,1.8-.91,1.09,1.09,0,0,1,1.35,1.08,1.18,1.18,0,0,0,.69,1.24C268.24,206.06,268.38,206.19,268.54,206.31Zm-3.19-1.61c.4.84.43.86,1,.52a.51.51,0,0,0,.18-.82C266.33,204.05,266.07,204.11,265.35,204.7Z" transform="translate(-86.48 -194.64)"/>
    <path d="M280.49,205.19c.34-1.14.67-2.24,1-3.4.66.22,1.29.37,1.88.62s.59,1.48,0,1.83a.66.66,0,0,0-.33.86c.05.28.06.56.1.87-.5,0-.74-.19-.75-.66,0-.21,0-.41-.05-.62,0-.39-.36-.42-.62-.46-.08,0-.23.24-.29.39a4.74,4.74,0,0,0-.21.77Zm2.66-1.81a.82.82,0,0,0-.93-.7c-.18,0-.39.43-.39.67,0,.42.45.4.71.42S283,203.52,283.15,203.38Z" transform="translate(-86.48 -194.64)"/>
    <path d="M279.64,205c-.45,0-.75,0-.85-.44a.54.54,0,0,0-.37-.28,4.3,4.3,0,0,0-.95-.08.57.57,0,0,0-.41.23c-.18.38-.45.44-.89.32.07-.17.13-.34.21-.5.43-.9.88-1.79,1.31-2.69.1-.22.2-.37.49-.32s.47.06.55.39C279,202.77,279.33,203.87,279.64,205Zm-1-1.34c-.15-.53-.28-1-.4-1.45h-.14l-.63,1.34Z" transform="translate(-86.48 -194.64)"/>
    <path d="M272.17,203.77a1.81,1.81,0,0,1-1.85,1.82,1.83,1.83,0,1,1,1.85-1.82Zm-2.93,0a1.22,1.22,0,0,0,1.24,1.22,1.18,1.18,0,0,0,1.15-1.21,1.29,1.29,0,0,0-1.22-1.23A1.16,1.16,0,0,0,269.24,203.74Z" transform="translate(-86.48 -194.64)"/>
    <path d="M285,203.07c.48.1.82.22.85.74a8.67,8.67,0,0,0,.24,1.09,7,7,0,0,0,.93-.4.79.79,0,0,1,1.14.21c-.44.19-.85.41-1.29.56a2,2,0,0,0-1.22,1.16,7.84,7.84,0,0,1-.4.73l-.57-.33a7.58,7.58,0,0,0,.63-1.82A7.67,7.67,0,0,0,285,203.07Z" transform="translate(-86.48 -194.64)"/>
    <path d="M275.75,201.68c-.38.09-.86.06-1,.27s0,.66,0,1,.08,1,.13,1.46c0,.23,0,.42-.28.43s-.47,0-.5-.33c-.05-.71-.15-1.42-.21-2.13,0-.39-.15-.61-.59-.45a.54.54,0,0,1-.33,0,1.41,1.41,0,0,1-.33-.23c.09-.11.17-.28.28-.3.46-.09.94-.14,1.41-.19.3,0,.6,0,.9-.08S275.84,201.24,275.75,201.68Z" transform="translate(-86.48 -194.64)"/>
    <path d="M281.36,223.58a5.2,5.2,0,1,1-5.17-5.11A5.15,5.15,0,0,1,281.36,223.58Zm-5.09-4.15c-.77,0-.75,0-.87.7a.62.62,0,0,1-.32.39,3.32,3.32,0,0,0-2,2.41,3.22,3.22,0,0,0,4.73,3.57,3,3,0,0,0,1.61-3.1,3.1,3.1,0,0,0-2.13-3c-.14,0-.36-.24-.35-.35C277,219.46,276.7,219.34,276.27,219.43Z" transform="translate(-86.48 -194.64)"/>
    <path d="M299,247.75v1.07l-.53,0v-2.71a13.61,13.61,0,0,1,1.69,0c.53.07.7.87.3,1.26a3.07,3.07,0,0,1-.35.24l.7,1.14a.67.67,0,0,1-1-.45A.79.79,0,0,0,299,247.75Zm0-.48a2.61,2.61,0,0,0,.69,0c.15,0,.25-.23.37-.35-.13-.11-.24-.29-.38-.32a2.57,2.57,0,0,0-.68,0Z" transform="translate(-86.48 -194.64)"/>
  </g>
</svg>
